<svg width="35" height="26" viewBox="0 0 35 26" fill="none" xmlns="http://www.w3.org/2000/svg">
<g clip-path="url(#clip0_24_1428)">
<path d="M0.173138 13.2557L0.201981 12.9927C0.533665 10.7127 0.692299 9.26586 2.95641 9.2074C3.99473 9.11971 5.23494 8.98818 6.25884 9.00279C8.04705 9.1051 9.11422 9.64585 10.7582 8.85664C16.2094 6.75209 9.51801 4.42831 11.2197 1.0961C12.532 -1.19844 14.9403 0.599195 16.3824 2.27991C16.6853 2.57221 17.0314 2.86451 17.4208 3.02528C18.661 3.59526 19.9877 2.71836 21.2424 3.01066C21.8192 3.1422 22.3672 3.46373 22.8864 3.78525C25.2803 5.34905 27.7319 7.11746 29.448 9.57277C30.8901 12.335 31.6544 15.3165 32.736 18.3125C33.1542 19.9786 33.3561 21.104 34.1781 22.6678C34.553 23.5301 35.202 24.6262 34.9568 25.5469C34.2213 26.8623 30.8468 25.1669 29.722 24.2023C28.5827 23.2085 27.3425 22.507 25.8715 22.9016C23.0594 23.7785 20.1031 23.1062 17.1756 22.7701C15.1999 22.6678 12.9791 23.3839 10.989 23.0624C10.5131 23.0185 10.0372 22.9893 9.59011 23.1355C8.82579 23.3693 8.49411 23.9685 7.90284 24.3777C6.83568 25.0208 5.56663 24.6993 4.12452 24.7723C2.69683 24.7285 1.81714 24.7869 1.22588 23.7493C0.129875 20.6071 -0.259495 16.6172 0.173138 13.3288V13.2557ZM31.8419 23.3693C32.1159 23.5008 32.3899 23.6177 32.6639 23.72C32.5773 23.5301 32.462 23.3108 32.3178 23.077C32.1447 22.7993 31.9428 22.4924 31.6832 22.1562C31.4958 22.3316 31.3371 22.507 31.2218 22.6678C31.1497 22.7701 31.0775 22.8724 31.0343 22.9747C31.2939 23.1208 31.5679 23.267 31.8419 23.3839V23.3693ZM30.3565 18.1956C30.5295 18.4733 30.717 18.5902 30.8612 18.634L29.9815 16.6026C29.9815 16.6026 29.9815 16.6756 29.9815 16.7049C29.9815 17.3187 30.1113 17.8156 30.3565 18.1956ZM28.4096 16.5003C28.4096 15.7841 29.2172 15.1703 29.2172 14.5126C28.7269 11.3266 25.9436 8.85664 23.6074 7.059C22.8287 6.45979 21.1703 5.26136 20.4204 5.01291H20.3627C20.2906 5.07137 20.1464 5.15906 19.9445 5.30521C19.8724 5.23213 19.2955 6.05057 19.5118 6.02134C21.5019 8.60819 24.8765 11.4727 26.5637 13.9426C27.3425 14.9511 27.7607 16.8364 28.5827 17.7571C28.6115 17.5672 28.3231 16.8218 28.3952 16.5003H28.4096ZM24.9486 20.2855C24.9918 20.3586 25.0351 20.4463 25.1072 20.5194C26.1023 20.344 26.5493 20.154 26.7368 20.0371C27.0108 19.8763 27.0396 19.7009 27.0396 19.5402C27.0396 18.9263 26.2032 18.444 25.4966 18.1371C25.4245 18.1079 25.3524 18.0787 25.2658 18.0494V18.0933C25.1072 18.5464 24.9918 18.9117 24.9342 19.204C24.8765 19.4817 24.8476 19.7009 24.8476 19.8763C24.8476 20.0225 24.8765 20.154 24.9342 20.2855H24.9486ZM7.93169 19.584C8.76811 20.6948 10.6284 20.6801 11.8975 20.8117H12.1282C13.4982 20.8117 15.6326 20.0955 17.0026 20.2417C18.834 20.3732 21.2712 21.6593 22.9873 21.0747C23.5353 20.8263 23.319 19.9348 23.492 19.1163C23.7084 18.3856 24.0401 17.9033 23.5497 17.6841C21.0405 16.8072 17.3342 18.6925 16.0219 15.4334C15.5172 14.4542 15.7335 14.0596 16.642 14.4542C17.5361 14.8049 18.6466 15.2434 18.6177 14.8049C18.4014 13.928 17.8534 12.8611 17.7813 11.8527C17.6227 10.8881 16.6276 9.36817 15.4883 9.1051C13.3973 9.58739 11.4937 11.5458 9.27285 11.7358C8.81137 11.8381 8.29222 11.9989 8.00379 12.3788C6.99432 14.2642 7.00874 17.6548 7.91726 19.5694L7.93169 19.584ZM3.74957 22.0393C4.12452 22.2001 5.92715 22.3024 6.37421 22.1709C6.72031 21.8201 5.88389 19.7594 5.88389 19.1456L5.84063 18.9263C5.27821 16.7195 5.76852 14.045 5.86947 11.8966C5.76852 11.6481 5.2061 11.6919 4.60041 11.7066C2.03346 10.8735 2.55262 20.9871 3.73515 22.0539L3.74957 22.0393Z" fill="#D8D8D8"/>
</g>
<defs>
<clipPath id="clip0_24_1428">
<rect width="35" height="26" fill="white" transform="matrix(-1 0 0 1 35 0)"/>
</clipPath>
</defs>
</svg>
