<svg width="124" height="132" viewBox="0 0 124 132" fill="none" xmlns="http://www.w3.org/2000/svg">
<path d="M57.617 19.1114L57.2911 17.1088C56.8585 17.3556 56.3584 17.5239 55.9594 17.5912C55.1278 17.7259 54.6839 17.3276 54.5041 16.245L52.9476 6.69207L55.5268 6.27136L55.229 4.44268L52.6498 4.86339L51.8576 0L49.7954 0.336567L50.5877 5.19996L48.7278 5.50287L49.0256 7.33155L50.8855 7.02864L52.5094 17.0078C52.8577 19.1507 53.7062 20.0145 55.6504 19.6948C56.3359 19.5826 56.8978 19.4031 57.617 19.1114Z" fill="black"/>
<path d="M64.5731 4.18915L63.7102 19.1753L65.797 19.295L66.66 4.30891L64.5731 4.18915Z" fill="black"/>
<path d="M82.3463 15.3811C83.9421 10.2934 83.442 7.61765 80.6437 6.74257C77.8736 5.87872 75.935 7.79154 74.3392 12.8793C72.721 18.0512 73.2997 20.6596 76.0137 21.5066C78.7277 22.3537 80.7224 20.5474 82.3407 15.3811H82.3463ZM76.3902 13.5244C77.6544 9.48559 78.7052 8.08323 80.0875 8.51516C81.4978 8.9583 81.5596 10.7028 80.2954 14.7416C79.0536 18.6963 77.9354 20.1379 76.5756 19.7116C75.2158 19.2853 75.1484 17.4734 76.3902 13.5188V13.5244Z" fill="black"/>
<path d="M39.8539 8.21687L37.9137 8.99316L43.5075 22.9267L45.4477 22.1504L39.8539 8.21687Z" fill="black"/>
<path d="M36.4334 26.8187C37.0065 26.4261 37.4392 26.0278 37.9618 25.4556L36.8155 23.784C36.5289 24.1879 36.1524 24.5581 35.8153 24.7881C35.1242 25.2649 34.551 25.0966 33.9217 24.1879L28.4376 16.2113L30.5896 14.736L29.5389 13.2046L27.3868 14.6799L24.5942 10.6187L22.8691 11.7966L25.6618 15.8579L24.1053 16.9237L25.1561 18.4551L26.7125 17.3893L32.4439 25.7249C33.6745 27.5143 34.8095 27.935 36.4334 26.8187Z" fill="black"/>
<path d="M93.8315 16.9909C94.9721 16.5085 95.9835 16.4244 96.5567 16.817C97.2984 17.3275 97.1748 18.0174 96.287 19.302L90.0611 28.3557L91.7861 29.5392L98.2592 20.1266C99.0009 19.0496 99.4224 18.1801 99.4392 17.3892C99.4561 16.6992 99.1358 16.0934 98.3941 15.5829C97.4838 14.9603 96.3656 14.893 94.9665 15.3417L95.8206 14.1021L94.0955 12.9185L85.5828 25.2929L87.3078 26.4765L93.8315 16.9965V16.9909Z" fill="black"/>
<path d="M14.9802 30.7118C18.3347 33.5726 22.1163 29.8255 24.7404 32.0637C25.6226 32.8154 25.7181 33.7746 25.0382 34.5655C24.229 35.5135 23.1839 35.3452 21.7848 34.2682L20.543 35.7211C22.8973 37.6115 24.8134 37.6451 26.4542 35.7323C27.9263 34.0158 27.7465 31.9908 25.8923 30.4145C22.3635 27.4023 18.4302 31.0989 16.1826 29.1805C15.5196 28.6139 15.3061 27.75 15.9298 27.0208C16.6659 26.1626 17.6436 26.3084 19.0202 27.2901L20.2227 25.8372C18.0762 24.1993 16.1826 23.9132 14.5419 25.8316C13.1484 27.464 13.3563 29.3151 14.9858 30.7062L14.9802 30.7118Z" fill="black"/>
<path d="M114.453 40.988C115.948 41.6668 116.785 42.4801 117.1 43.3833C117.527 44.6173 116.813 45.3858 115.386 45.8795L105.952 49.1442L107.109 52.4818L117.341 48.9422C118.724 49.5649 119.516 50.339 119.842 51.2701C120.162 52.2013 119.993 53.211 118.403 53.7607L108.722 57.1096L109.874 60.4248L119.993 56.9245C123.146 55.8306 123.977 53.9795 123.134 51.545C122.533 49.8229 121.331 48.7347 119.342 47.7025C120.668 46.5694 120.954 45.2736 120.336 43.4955C119.83 42.0426 118.493 40.758 116.757 39.9166L118.488 39.3164L117.42 36.248L103.187 41.1731L104.339 44.4883L114.459 40.988H114.453Z" fill="black"/>
<path d="M19.5091 45.9637L9.91745 41.4088C8.77118 39.9672 8.51832 38.8846 9.06337 37.7347C9.11394 37.6281 9.17575 37.4991 9.31622 37.342L7.22034 36.3491C7.09672 36.5455 7.04615 36.652 6.99558 36.7586C6.39434 38.0151 6.87196 39.109 7.87214 40.4496L5.93359 39.5297L5.03455 41.4145L18.61 47.8597L19.5091 45.9749V45.9637Z" fill="black"/>
<path d="M7.54058 60.3298C13.0247 61.3226 15.4297 60.5766 15.941 57.755C16.3961 55.2476 14.7273 53.7106 11.7661 52.9646L11.4064 54.9335C13.0472 55.3205 14.3733 55.9712 14.1148 57.396C13.8507 58.8489 12.2493 59.062 8.27667 58.3721L9.33304 52.5551C8.79362 52.426 8.2261 52.3251 7.85524 52.2578C4.00061 51.5622 1.23045 52.0334 0.696642 54.9671C0.190932 57.7606 2.60148 59.4322 7.54058 60.3298ZM2.46663 55.2869C2.71386 53.9182 4.28156 53.733 7.28211 54.2716L6.59659 58.0635C3.39376 57.3399 2.25872 56.4536 2.47224 55.2869H2.46663Z" fill="black"/>
<path d="M121.719 68.7046L119.808 70.9764C121.011 71.9973 121.494 73.0912 121.275 74.6113C120.999 76.5297 120.067 77.1019 118.077 76.6363C117.948 73.8653 117.735 71.4925 117.117 69.8826C116.437 68.1156 115.262 67.1003 113.335 66.8198C110.835 66.4608 109.059 67.7846 108.699 70.2808C108.435 72.1151 108.947 73.8597 109.941 75.464L108.239 75.4808L107.744 78.8913L110.481 79.0203L117.83 80.0805C121.365 80.591 123.314 79.054 123.871 75.2171C124.258 72.5527 123.725 70.3369 121.707 68.699L121.719 68.7046ZM112.29 75.6883C111.413 74.6562 110.998 73.2763 111.177 72.0422C111.34 70.8923 112.138 70.2752 113.313 70.4491C114.234 70.5837 114.925 71.0605 115.246 71.8683C115.628 72.8892 115.751 74.0504 115.88 76.2044L112.29 75.6883Z" fill="black"/>
<path d="M20.4474 72.8162L14.2777 73.5455C14.9857 72.8499 15.4464 72.0646 15.3172 70.9988C15.0419 68.6989 12.6145 67.7004 7.34385 68.3287C2.01143 68.9625 -0.253028 70.3088 0.0223024 72.6087C0.162777 73.7867 1.00563 74.4766 2.062 74.9927L0.561726 75.1722L0.808962 77.2421L20.6946 74.8861L20.4474 72.8162ZM12.2886 73.7811L4.13541 74.7459C3.34313 74.4598 2.23619 73.7474 2.14066 72.9677C1.98895 71.7 3.79827 70.9315 7.60233 70.4827C11.5806 70.0115 13.2157 70.5164 13.3787 71.8682C13.4629 72.5862 12.901 73.2369 12.2886 73.7755V73.7811Z" fill="black"/>
<path d="M19.2168 85.9423C21.8296 85.4037 22.6893 85.6337 23.2231 86.8566C23.3018 87.0417 23.3692 87.2661 23.4648 87.6363L25.3022 86.8398C25.2291 86.5256 25.0718 86.0881 24.9538 85.8245C24.0716 83.8051 22.8916 83.1207 18.8684 83.9172L3.34875 86.9351L4.26465 89.0331L15.1093 86.4695L15.1318 86.52L5.92226 92.8307L6.8831 95.0352L18.8403 86.0152L19.2224 85.9423H19.2168Z" fill="black"/>
<path d="M112.239 88.4216C108.07 85.9534 104.227 86.5761 102.108 90.1381C100.597 92.6792 100.597 95.0688 102.176 97.6884L104.817 96.0841C103.8 94.5022 103.648 93.1672 104.446 91.8209C105.497 90.0539 107.542 89.6781 110.436 91.3946C113.307 93.0943 114.144 95.1417 113.093 96.9143C112.363 98.1989 111.228 98.6364 109.447 98.3896L108.969 101.407C112.009 102.03 114.127 100.79 115.594 98.3223C117.712 94.7603 116.527 90.9571 112.234 88.416L112.239 88.4216Z" fill="black"/>
<path d="M18.256 105.132C17.0479 105.278 16.0533 105.093 15.6038 104.56C15.0251 103.876 15.3229 103.242 16.5197 102.232L24.9257 95.1473L23.5772 93.5542L14.8396 100.919C13.8394 101.761 13.2045 102.49 12.9741 103.247C12.7718 103.909 12.9235 104.582 13.5023 105.267C14.2159 106.108 15.2779 106.467 16.722 106.422L11.1536 111.117L12.5021 112.71L28.4264 99.2871L27.0778 97.694L18.2504 105.132H18.256Z" fill="black"/>
<path d="M92.2468 102.294L98.6918 110.944C98.4164 112.52 97.8602 113.619 97.0004 114.259C95.6519 115.263 94.6573 114.663 93.6403 113.288L87.8696 105.547L85.0264 107.656L90.7971 115.397C92.0276 117.047 92.7412 117.815 93.6459 118.157C94.9102 118.735 96.2419 118.539 97.7141 117.45C99.0177 116.48 99.7818 115.229 100.304 113.109L104.687 118.993L107.502 116.901L95.0675 100.207L92.2524 102.299L92.2468 102.294Z" fill="black"/>
<path d="M43.1145 108.818C40.7545 107.774 38.2765 107.702 35.6581 109.682L37.5517 112.004C38.9789 110.86 40.2825 110.641 41.7435 111.286C43.8955 112.234 44.0248 114.158 43.0695 116.682L34.2533 112.795C34.0511 113.182 33.9331 113.446 33.8375 113.659C31.9608 117.899 32.7306 121.467 36.6583 123.2C40.2713 124.793 43.9854 123.133 45.9184 118.763C47.8064 114.495 47.1265 110.585 43.1145 108.818ZM37.709 120.749C35.984 119.986 35.512 118.258 36.3773 116.295L42.0581 118.797C40.9737 120.536 39.434 121.506 37.709 120.743V120.749Z" fill="black"/>
<path d="M78.1789 110.33L74.8367 111.407L79.4705 125.746L82.8127 124.67L78.1789 110.33Z" fill="black"/>
<path d="M64.0115 123.89C62.6911 125.124 61.674 125.545 60.657 125.534C59.2916 125.517 58.5723 124.76 58.5948 123.077L58.7016 113.109L55.1616 113.075L55.0549 123.043C55.038 124.894 55.229 125.882 55.6561 126.639C56.3135 127.834 57.5216 128.512 59.2635 128.529C61.0616 128.546 62.6068 127.839 64.2475 126.381L64.2307 128.232L67.4785 128.266L67.6358 113.199L64.1239 113.165L64.0115 123.885V123.89Z" fill="black"/>
<path d="M83.6404 126.933L80.1055 128.071L81.1917 131.434L84.7267 130.296L83.6404 126.933Z" fill="black"/>
</svg>
