<svg width="44" height="23" viewBox="0 0 44 23" fill="none" xmlns="http://www.w3.org/2000/svg">
<g clip-path="url(#clip0_11_328)">
<path d="M43.3926 17.8026C43.3757 13.3994 43.4432 5.49103 43.3588 3.62617C42.2622 1.93397 36.1042 2.59013 34.1978 2.84914C31.7515 5.6637 28.6303 1.91671 26.0153 1.00154C21.8987 -0.293504 17.6134 1.67496 13.2269 1.03608C2.02448 -0.241702 -7.62583 7.89118 9.46466 8.49553C16.5674 8.11565 1.53522 23.6044 17.6303 22.3439C22.1518 20.7898 26.8251 20.9107 31.0766 18.4069C33.0337 17.4572 33.253 19.2185 34.9907 20.0819C38.0613 21.3424 44.4217 23.6907 43.4095 17.8026H43.3926ZM9.49841 7.16596C-9.97092 5.95725 11.1349 0.483523 18.322 2.74554C16.1456 6.35439 13.6825 7.75304 9.49841 7.16596ZM20.9708 10.6021C23.0797 10.4295 24.7331 13.9865 22.2024 14.7636C20.4984 15.5578 9.75148 11.0856 14.1548 8.90995C15.6226 11.2238 18.5582 11.5864 20.9708 10.6021ZM11.8098 16.991C13.7331 17.958 16.0275 18.5969 18.1027 19.2703C21.7806 23.19 7.25454 20.8934 11.8098 16.991ZM12.299 15.5406C10.0214 10.1014 18.3558 15.247 20.3297 15.9205C20.7683 19.8919 13.6656 17.2673 12.299 15.5406ZM33.7254 12.8814C33.6579 14.5218 33.9785 15.5406 32.8144 16.2658C29.069 17.4572 24.3788 21.1179 20.5153 19.3394C20.7852 16.8184 24.1088 14.1247 26.3021 13.1404C27.3818 12.9332 29.4739 12.8469 29.9463 11.7936C28.141 11.2065 23.0966 12.2425 23.5521 8.77181C23.5521 8.28833 24.48 6.85514 23.9739 6.71701C12.3159 15.696 15.1165 1.79584 24.3788 1.95124C27.1456 2.711 30.6717 5.05935 33.388 6.26806C34.1134 8.04659 33.5567 10.5676 33.7254 12.8814ZM37.5383 18.1307C36.9984 18.3033 35.2101 18.0961 34.9907 18.1134L34.9064 18.0789C34.7883 15.506 34.9064 6.28533 34.8726 4.23052C35.3113 4.09238 38.4156 3.69523 38.0444 4.80034C37.9263 7.33863 37.6564 17.5608 37.5383 18.1134V18.1307Z" fill="black"/>
<path d="M15.8923 23C6.14079 22.4475 10.2742 15.2815 11.1178 9.32433C7.86164 8.06382 -1.63682 10.015 0.235878 3.6952C2.78342 0.03454 12.6868 0.690696 17.8494 0.621627C27.9215 -1.9512 28.2251 4.29955 33.2528 3.02178C34.4506 1.6404 43.6285 1.53679 43.7804 3.55706C43.2911 7.09685 44.9782 17.6126 43.0718 21.4287C40.3049 22.7755 35.581 21.4287 33.2865 19.2875C32.6116 18.6314 32.2742 18.286 31.262 18.7868C26.3524 21.3251 21.1224 21.8258 15.8923 23ZM9.86931 8.04655C15.285 8.5473 8.63772 16.0413 10.3586 19.3221C14.8294 27.2132 29.558 15.6614 33.8601 18.6832C35.969 20.5826 40.1024 21.8258 42.6669 20.6689C43.4935 16.7493 42.7512 6.94145 42.9368 3.6434C41.0978 2.6937 36.5595 2.91817 34.3662 3.24625C30.334 6.90691 25.88 -1.19144 21.1393 1.17418C19.7389 1.48499 17.9337 1.53679 16.3985 1.48499C12.2988 1.65766 3.98128 0.811567 0.961338 4.14415C-0.118417 8.51277 6.96747 7.87388 9.86931 8.04655ZM16.4322 21.8431C13.6316 21.9122 8.21594 19.3911 11.6914 16.542C14.0534 17.5608 24.2435 19.961 16.4322 21.8431ZM11.9107 17.4745C9.7006 20.3581 17.8156 22.1539 18.423 20.0128C16.584 18.8213 13.834 18.7177 11.9107 17.4745ZM22.7926 20.2545C21.8816 20.2545 20.9874 20.0646 20.1439 19.6502C19.7052 17.2845 22.3877 15.8686 23.7205 14.3318C24.9015 12.467 27.5503 12.8296 29.2543 11.9835C26.6899 12.536 21.3754 11.2583 23.6024 7.3904C11.6745 16.5593 15.1669 0.604359 24.4797 1.55406C27.4322 2.48649 31.0932 4.5931 33.7758 6.12989C34.1301 9.13439 35.1592 14.1937 33.0334 16.6629C29.7435 17.7508 26.285 20.2545 22.7758 20.2718L22.7926 20.2545ZM20.9199 19.0631C24.4966 20.4963 29.0687 17.0083 32.6791 15.8686C33.9107 13.7275 33.3371 8.96172 33.0166 6.50977C28.0058 4.55856 23.5012 -0.552548 18.423 4.92118C16.854 6.47523 15.4874 8.78904 17.6807 9.37613C19.8064 9.79055 22.1178 6.71697 24.0917 6.30256C25.4751 6.99325 23.0457 9.15166 24.2773 10.1186C25.6776 12.0353 29.2543 10.1704 30.4184 11.7935C29.8954 13.244 27.8034 13.2958 26.3862 13.5548C24.3785 14.4354 21.5779 16.9737 20.9368 19.0458L20.9199 19.0631ZM36.8126 18.6314C36.1377 18.5969 35.1592 18.6314 34.5012 18.4069C34.3662 15.765 34.4675 7.66667 34.4506 4.02328C35.2604 3.50526 38.9046 3.14265 38.4659 4.86937C38.331 7.3904 38.1285 18.2688 37.9092 18.4587C37.5549 18.5796 37.3018 18.6141 36.8294 18.6141L36.8126 18.6314ZM35.311 17.699C35.8172 17.7335 38.3816 17.7853 38.9383 17.768C39.0902 15.7132 38.5503 7.26953 38.7021 4.61037C38.0273 4.6449 35.9859 4.47223 35.2942 4.5413C35.2942 7.99475 35.2267 15.0225 35.311 17.699ZM18.1699 18.4414C7.65919 16.6975 9.43066 8.68544 20.65 15.5923C21.3923 17.4572 19.5365 18.5451 18.1699 18.4414ZM12.9736 13.3303C9.56563 15.4542 19.6208 19.8056 19.992 16.2312C17.765 15.2815 15.2512 14.0728 12.9736 13.3303ZM21.5948 15.2988C19.0978 15.1607 9.16072 11.7072 14.0871 8.46097C16.5334 10.9302 18.3049 11.1029 20.9537 10.1704C24.1254 10.015 25.1715 15.247 21.5948 15.2988ZM14.1377 9.41067C11.5227 11.949 21.3586 14.8499 22.0166 14.3664C24.1086 13.6584 22.7083 11.1719 21.1899 11.0165C19.469 11.5863 15.6055 12.277 14.1377 9.3934V9.41067ZM11.5902 7.61487C-11.439 7.21772 8.7052 -0.690686 18.8448 2.50376C17.5626 5.12838 14.8632 8.25376 11.5902 7.61487ZM10.0212 6.73424C13.581 7.33859 15.6055 5.92268 17.6975 3.02178C11.0334 1.55406 -9.46504 5.76727 10.0212 6.73424Z" fill="black"/>
</g>
<defs>
<clipPath id="clip0_11_328">
<rect width="44" height="23" fill="white"/>
</clipPath>
</defs>
</svg>
