<svg width="14" height="21" viewBox="0 0 14 21" fill="none" xmlns="http://www.w3.org/2000/svg">
<path d="M5.264 4.368C5.068 6.188 3.976 7.364 2.1 7.364C0.924001 7.364 8.60542e-07 6.524 8.60542e-07 5.32C8.60542e-07 2.912 2.408 3.33786e-06 6.776 3.33786e-06C9.688 3.33786e-06 13.692 1.932 13.692 5.264C13.692 6.972 12.628 8.316 10.556 9.1C7.672 10.192 9.324 12.348 6.608 12.348C5.46 12.348 4.732 11.648 4.732 10.5C4.732 8.12 7.14 6.86 7.14 4.452C7.14 3.864 6.888 3.024 6.16 3.024C5.376 3.024 5.32 3.78 5.264 4.368ZM9.492 17.304C9.492 19.012 8.092 20.412 6.384 20.412C4.676 20.412 3.276 19.012 3.276 17.304C3.276 15.596 4.676 14.196 6.384 14.196C8.092 14.196 9.492 15.596 9.492 17.304Z" fill="black"/>
</svg>
