<svg width="96" height="22" viewBox="0 0 96 22" fill="none" xmlns="http://www.w3.org/2000/svg">
<g clip-path="url(#clip0_11_365)">
<path d="M19.1673 17.5578C18.8986 16.6629 17.9877 16.4137 17.2079 16.0366C16.0415 15.5252 13.9577 14.8541 12.1884 14.3939C11.638 14.1255 6.90023 13.5246 8.37463 12.9813C12.6275 11.8948 17.9091 12.208 21.1004 9.05689C22.5682 7.35671 23.9181 4.65944 22.483 2.69082C18.8855 -1.5724 7.9618 0.0702511 3.47306 1.91104C1.51375 2.9337 0.0262367 5.42005 0.0327896 7.60599C0.301459 9.46595 3.72863 8.98658 4.67224 8.71813C5.37996 8.47525 4.19388 8.27072 4.16767 7.9767C4.18733 7.87443 4.31839 7.80413 4.44289 7.7466C5.00644 7.47176 6.93955 7.01156 7.81764 7.05631C8.59743 7.05631 8.63019 7.57403 8.21081 8.16206C7.65381 8.99297 6.89368 9.84945 6.0549 10.4503C4.8033 11.3898 3.23061 11.5368 2.12316 12.47C1.06815 13.2818 0.77982 14.6112 1.46787 15.6147C2.44426 17.4938 -0.419361 19.3027 0.0524483 21.0668C0.23593 21.5206 0.943643 21.5206 1.59893 21.0987C3.38132 20.1144 3.36166 16.7332 5.95006 17.1423C9.44275 18.2225 12.9813 20.3701 16.8606 21.6868C20.0781 23.0098 19.626 19.7117 19.1804 17.6153L19.1607 17.545L19.1673 17.5578ZM11.4807 6.74312C12.0508 6.32766 13.0272 6.34683 14.0625 6.27653C15.786 6.30209 17.6339 5.82272 19.2131 6.54497C20.2681 7.38228 15.7925 8.47525 15.0848 8.75009C13.5318 9.21668 11.8804 9.72801 10.0849 10.2138C9.73108 10.2969 8.94473 10.4886 9.22651 9.91976C9.96043 8.84596 10.7861 7.92557 11.4283 6.79425L11.4807 6.74951V6.74312Z" fill="black"/>
<path d="M95.607 16.2285C94.8075 16.1006 93.5035 17.1425 92.7892 16.4522C92.5402 16.0815 92.7368 15.6021 92.9072 15.2058C93.687 13.5951 96.0919 11.5562 94.4864 9.79209C93.818 9.31272 93.1497 9.63869 92.4288 10.1117C91.0789 11.0512 89.5783 12.4318 88.3529 13.6079C86.872 15.0332 85.9939 15.7427 87.2783 13.7293C87.8418 12.8153 88.5692 11.7479 88.6413 10.6997C88.7854 9.46611 87.7763 8.50098 86.4854 9.03788C84.3163 10.0286 82.1146 12.5916 80.188 14.5027C78.4318 16.1454 79.8735 14.0297 80.4632 13.25C81.5838 11.9397 82.475 9.63869 80.0111 10.2395C78.0059 10.6741 76.3611 14.2662 74.7294 15.6276C73.9759 15.8769 74.7884 13.4225 74.6901 12.9176C74.7098 10.1692 73.5303 7.17791 70.1686 8.3284C68.052 9.0954 65.9355 11.2749 64.7428 13.5695C63.9696 14.8734 63.157 16.7014 61.6564 17.2319C60.8242 17.462 60.49 16.6567 60.4769 15.9984C60.5293 11.9205 63.8516 8.43706 65.4899 4.87692C65.9813 3.92457 66.1845 2.53119 65.6013 1.67471C65.1819 0.95246 64.3562 0.907719 63.8058 1.50214C62.3707 2.78047 60.988 6.31504 59.4874 8.175C58.5241 9.06344 57.338 8.23253 56.2109 8.42428C54.1337 8.88448 51.8139 10.4185 50.1692 12.63C48.9962 14.0553 47.8691 16.8101 45.8312 16.906C45.3987 16.8165 45.3004 16.3307 45.5428 15.6532C45.9557 14.426 47.1614 13.2947 47.856 12.1698C48.8651 10.5591 48.1574 8.37315 46.5585 8.91004C44.1798 9.88157 41.6176 13.0518 39.3765 14.8351C39.1144 14.9757 39.1275 14.784 39.4159 14.311C39.8418 13.5376 41.1458 12.1442 41.2965 11.2813C41.4997 10.0478 39.9139 9.99023 39.1079 10.4632C36.8209 11.5306 35.4579 15.5957 33.0989 16.3435C30.7267 16.6247 33.4265 13.2947 33.1906 12.2593C33.1906 11.3644 32.9154 10.4376 32.9023 9.56199C32.8433 8.60324 32.9285 7.76594 32.2077 7.37605C29.0164 6.09772 23.2761 10.444 21.3167 12.9048C20.4583 14.0106 19.9341 15.2889 19.9865 16.6887C20.052 18.7595 21.2512 21.5335 23.5316 20.7857C24.9929 20.415 27.1816 17.7497 27.6927 17.5515C27.8041 17.5132 27.8434 17.5835 27.8565 17.6985C27.6272 19.6608 27.8893 21.8084 30.5694 21.2267C31.9128 20.9711 32.8564 19.6352 34.1866 19.4243C34.2915 19.4243 34.3898 19.4243 34.4881 19.4435C35.3465 19.5713 36.0673 20.8049 37.0437 20.5109C37.6007 20.3447 38.007 19.9612 38.4264 19.5393C38.9244 19.1111 43.6556 12.9368 41.7028 16.6951C41.4145 17.2895 41.1196 17.9095 40.9754 18.5486C40.4119 20.6834 42.3253 22.4795 44.383 21.2906C46.0212 20.6579 47.7184 17.9606 48.9241 19.1622C50.1036 20.5364 50.6017 22.6073 52.6855 20.8432C53.6357 20.0954 54.92 18.587 55.5229 18.3377C55.6736 18.2674 55.8243 18.2482 55.9423 18.3633C56.2765 18.8107 56.2372 19.469 56.4075 20.0315C57.1218 23.304 60.2017 21.5207 61.8858 20.0315C62.5345 19.5521 63.2094 18.9705 64.0417 19.1814C64.9067 19.3859 65.8241 20.6579 67.0757 20.9391C68.9891 21.3673 70.7322 20.1018 72.4425 19.4371C73.4451 18.9896 74.3297 18.7659 75.2537 19.2709C76.04 19.6608 76.597 20.5748 77.3244 20.5812C78.7595 20.7282 80.9678 16.4841 82.6126 15.7299C82.724 15.7491 82.724 15.8705 82.7109 15.9792C82.6454 16.5736 81.6165 18.4144 81.8393 19.5841C82.0097 21.2651 83.7462 21.1117 84.7816 20.1593C86.3871 18.881 88.5692 16.2029 89.5456 15.4167C89.6635 15.3145 89.7618 15.2378 89.8404 15.193C89.9387 15.1291 89.9912 15.1227 89.9912 15.1738C89.4342 16.4202 87.1603 19.1942 88.7527 20.9327C90.712 22.6968 94.7289 19.2964 95.6987 17.5579C95.9215 17.1616 96.2426 16.401 95.6594 16.254H95.6004L95.607 16.2285ZM23.4923 17.5196C21.8672 15.5765 29.5144 10.8531 30.8905 10.4952C30.9692 10.6358 30.6743 11.0001 30.5498 11.1919C29.095 13.1349 26.0348 17.8583 23.5578 17.5579L23.4923 17.5196ZM57.9081 12.9176C57.089 14.0553 55.8309 15.0396 54.7169 16.0367C53.8388 16.6759 52.9673 17.7433 52.0826 17.8328C51.2504 17.2575 52.1416 15.9025 52.6855 15.34C53.9699 14.0809 55.8309 13.0902 57.3446 12.2784C57.9606 11.9077 58.3996 11.9844 57.9475 12.8409L57.9016 12.9176H57.9081ZM69.9458 16.7078C69.8017 17.7816 67.0888 18.7595 66.7611 17.4237C66.7087 16.4074 67.5933 15.5062 68.2093 14.7584C69.0939 13.8444 70.0245 12.9176 71.0926 12.304C71.3023 12.2656 70.8108 13.0007 70.588 13.6335C70.2145 14.5219 70.0703 15.6852 69.9655 16.5928L69.9393 16.7142L69.9458 16.7078Z" fill="black"/>
</g>
<defs>
<clipPath id="clip0_11_365">
<rect width="96" height="22" fill="white"/>
</clipPath>
</defs>
</svg>
