<svg width="74" height="42" viewBox="0 0 74 42" fill="none" xmlns="http://www.w3.org/2000/svg">
<g clip-path="url(#clip0_38_2)">
<path d="M20.3737 2.85817V6.65042C20.3737 8.37875 19.3774 7.90332 19.3774 8.59129C19.3774 9.56452 21.2692 9.56452 21.9073 9.56452C24.0622 9.56452 24.398 9.20655 24.398 8.72553C24.398 8.0879 23.7208 8.27247 23.6144 7.66281C23.5472 7.28805 23.5193 6.75669 23.5193 6.37076C23.5193 5.53176 23.6256 5.49261 23.9167 5.49261C24.6499 5.49261 24.8738 6.09109 25.0193 6.70635C25.4335 8.46265 25.6966 9.68758 27.8291 9.68758C29.3347 9.68758 29.9448 9.15621 29.9448 8.64722C29.9448 7.8362 29.0772 8.5801 28.9205 7.34399C28.7358 5.90651 28.3216 5.29684 27.3869 4.95006C27.2246 4.88294 27.0567 4.8326 27.0567 4.63124C27.0567 4.46904 27.1518 4.42988 27.2694 4.36277C28.0138 4.00479 28.4 3.23292 28.4 2.43308C28.4 0.665601 26.6537 0 25.1536 0C24.7282 0 24.2861 0.0279664 23.8607 0.039153C23.4185 0.0671195 22.9931 0.0894926 22.5677 0.0894926C22.2991 0.0894926 22.0192 0.0615262 21.7562 0.039153C21.4763 0.0279664 21.2076 0 20.9278 0C20.3961 0 19.355 0.0950859 19.355 0.822213C19.355 1.64443 20.3681 0.794247 20.3681 2.85817H20.3737ZM23.4633 3.44547L23.5137 2.18138C23.5417 1.76748 23.5249 1.45985 24.0174 1.45985C24.7898 1.45985 24.9521 2.12545 24.9521 2.77986C24.9521 3.60208 24.6723 4.0831 23.8047 4.0831C23.3625 4.0831 23.4297 3.79225 23.4577 3.44547H23.4633Z" fill="black"/>
<path d="M33.8965 9.60371C35.0943 9.60371 36.9749 8.85981 36.9749 7.83624C36.9749 7.58454 36.7342 7.17063 36.4544 7.17063C36.1745 7.17063 35.682 7.76912 34.6857 7.76912C34.0588 7.76912 33.1968 7.20979 33.1968 6.54419C33.1968 6.32045 33.4095 6.35961 33.555 6.35961H36.4432C36.8686 6.35961 37.266 6.24215 37.266 5.364C37.266 4.3684 36.2697 2.62329 34.0028 2.62329C32.0046 2.62329 30.2639 4.1167 30.2639 6.16384C30.2639 7.88098 31.5009 9.60931 33.8965 9.60931V9.60371ZM33.9245 3.83144C34.417 3.83144 34.7081 4.20619 34.7081 4.68162C34.7081 5.15705 34.2827 5.07874 33.9245 5.07874C33.5662 5.07874 33.1241 5.18502 33.1241 4.70399C33.1241 4.2789 33.4823 3.82585 33.9245 3.82585V3.83144Z" fill="black"/>
<path d="M40.8872 5.58771C38.542 5.58771 37.6409 6.75671 37.6409 7.70197C37.6409 9.0164 38.7435 9.60369 39.8517 9.60369C40.4618 9.60369 40.8648 9.4303 41.1559 9.25691C41.4469 9.0947 41.6204 8.9269 41.7828 8.9269C42.113 8.9269 42.141 9.60369 43.1932 9.60369C44.1672 9.60369 45.2026 8.78148 45.2026 8.02079C45.2026 7.30485 44.4022 8.58012 44.4022 6.23653V4.90533C44.4022 2.90853 42.3257 2.61768 41.5645 2.61768C40.2995 2.61768 38.0495 3.3504 38.0495 4.48024C38.0495 4.90533 38.3685 5.21296 38.7939 5.21296C39.9805 5.21296 40.0588 3.77549 40.8592 3.77549C41.4693 3.77549 41.4861 4.69279 41.4861 5.13466C41.4861 5.61568 41.3014 5.58771 40.8872 5.58771ZM41.5253 7.18739C41.5253 7.58452 41.4861 8.13266 40.9768 8.13266C40.5906 8.13266 40.4059 7.75791 40.4059 7.41672C40.4059 6.99163 40.7137 6.56654 41.1671 6.56654C41.5421 6.56654 41.5253 6.89654 41.5253 7.19299V7.18739Z" fill="black"/>
<path d="M54.3429 8.4905C54.3429 7.79693 53.6377 8.10456 53.6377 7.17048V0.810912C53.6377 0.374635 53.5425 0.0949707 53.1451 0.0949707C53.1059 0.0949707 49.7084 0.346669 49.7084 1.33109C49.7084 2.05262 50.6824 1.61075 50.6824 2.43297C50.6824 2.57839 50.6712 3.02026 50.4697 3.02026C50.3241 3.02026 49.8036 2.62314 48.8857 2.62314C47.0498 2.62314 45.6113 4.35146 45.6113 6.12454C45.6113 7.76337 46.9714 9.60915 48.7122 9.60915C49.2999 9.60915 49.7084 9.4078 50.0163 9.22322C50.3241 9.02186 50.52 8.83728 50.6432 8.83728C51.0854 8.83728 50.604 9.57 51.2813 9.57C51.4268 9.57 54.3429 9.50288 54.3429 8.4905ZM49.8596 7.94235C49.0312 7.94235 48.8745 6.85166 48.8745 6.22521C48.8745 5.59877 49.0368 4.0718 49.9267 4.0718C50.6991 4.0718 50.6991 5.20164 50.6991 5.72182C50.6991 6.30911 50.7551 7.94235 49.8596 7.94235Z" fill="black"/>
<path d="M9.57677 23.8273C9.57677 19.2744 3.50386 20.7286 3.50386 18.6927C3.50386 18.111 4.06917 17.7418 4.74083 17.7418C5.59159 17.7418 6.25766 18.1893 6.61028 19.0898L9.29691 18.139C8.47973 16.0527 6.94611 15.2864 4.66247 15.2864C2.16054 15.2864 0.324671 16.7015 0.324671 18.7039C0.324671 23.419 6.5655 21.92 6.5655 24.0734C6.5655 24.7894 5.88265 25.1418 5.01509 25.1418C3.86207 25.1418 3.16243 24.4594 2.99451 23.4582L0.0112305 24.3755C0.727666 26.7918 2.41241 27.6587 4.7968 27.6587C7.61776 27.6587 9.58237 26.3275 9.58237 23.8273H9.57677Z" fill="black"/>
<path d="M16.4668 27.4575V18.139H19.4669V15.4934H10.2092V18.139H13.2093V27.4575H16.4668Z" fill="black"/>
<path d="M18.5657 27.4574H21.8512L22.4669 24.8566H25.702L26.3345 27.4574H29.7208L26.2841 15.4878H21.9967L18.5601 27.4574H18.5657ZM24.0733 18.1558H24.1068L25.0751 22.2221H23.0882L24.0733 18.1558Z" fill="black"/>
<path d="M28.9932 18.139H31.9932V27.4575H35.2452V18.139H38.2509V15.4934H28.9932V18.139Z" fill="black"/>
<path d="M47.9228 18.139V15.4934H39.5215V27.4575H48.0236V24.8062H42.7734V22.6249H46.4228V20.0575H42.7734V18.139H47.9228Z" fill="black"/>
<path d="M58.4846 27.6587C62.0723 27.6587 63.8746 25.0746 63.8746 21.4726C63.8746 18.8046 62.7048 15.2864 58.4846 15.2864C54.2643 15.2864 53.1001 18.8046 53.1001 21.4726C53.1001 25.0746 54.9024 27.6587 58.4846 27.6587ZM58.4846 17.7754C60.0014 17.7754 60.6171 19.1569 60.6171 21.4781C60.6171 23.7994 60.035 25.1138 58.4846 25.1138C56.9341 25.1138 56.352 23.7658 56.352 21.4781C56.352 19.1905 56.9677 17.7754 58.4846 17.7754Z" fill="black"/>
<path d="M73.9999 18.139V15.4934H65.4419V27.4575H68.6938V22.6249H72.4999V20.0575H68.6938V18.139H73.9999Z" fill="black"/>
<path d="M2.96094 32.6815H5.96101V41.9999H9.21856V32.6815H12.2186V30.0359H2.96094V32.6815Z" fill="black"/>
<path d="M20.3738 34.449H16.758V30.0359H13.4893V41.9999H16.758V37.3016H20.3738V41.9999H23.6257V30.0359H20.3738V34.449Z" fill="black"/>
<path d="M28.9485 37.1673H32.6034V34.6H28.9485V32.6815H34.1035V30.0359H25.6965V41.9999H34.2042V39.3487H28.9485V37.1673Z" fill="black"/>
<path d="M42.2138 30.0359L38.7771 42.0055H42.0626L42.6783 39.4046H45.9135L46.546 42.0055H49.9322L46.4956 30.0359H42.2082H42.2138ZM43.2996 36.7702L44.2847 32.7039H44.3183L45.2866 36.7702H43.2996Z" fill="black"/>
<path d="M60.494 33.6491C60.494 31.2496 58.8596 30.0303 55.6077 30.0303H51.0068V41.9999H54.2588V37.6819H55.7756L57.4939 41.9999H61.0649L58.6805 36.7478C59.7832 36.1661 60.4996 35.1314 60.4996 33.6491H60.494ZM55.5573 35.1481H54.2588V32.6815H55.7084C56.3577 32.6815 57.2085 32.8157 57.2085 33.8952C57.2085 34.9747 56.2234 35.1481 55.5573 35.1481Z" fill="black"/>
<path d="M61.4287 32.6815H64.4344V41.9999H67.6863V32.6815H70.6864V30.0359H61.4287V32.6815Z" fill="black"/>
</g>
<defs>
<clipPath id="clip0_38_2">
<rect width="74" height="42" fill="white"/>
</clipPath>
</defs>
</svg>
