<svg width="44" height="23" viewBox="0 0 44 23" fill="none" xmlns="http://www.w3.org/2000/svg">
<g clip-path="url(#clip0_11_331)">
<path d="M0.607422 17.8026C0.62429 13.3994 0.556805 5.49103 0.641163 3.62617C1.73779 1.93397 7.89576 2.59013 9.8022 2.84914C12.2485 5.6637 15.3697 1.91671 17.9847 1.00154C22.1013 -0.293504 26.3866 1.67496 30.7731 1.03608C41.9755 -0.241702 51.6258 7.89118 34.5353 8.49553C27.4326 8.11565 42.4648 23.6044 26.3697 22.3439C21.8482 20.7898 17.1749 20.9107 12.9234 18.4069C10.9663 17.4572 10.747 19.2185 9.00926 20.0819C5.93871 21.3424 -0.421719 23.6907 0.590549 17.8026H0.607422ZM34.5016 7.16596C53.9709 5.95725 32.8651 0.483523 25.678 2.74554C27.8544 6.35439 30.3175 7.75304 34.5016 7.16596ZM23.0292 10.6021C20.9203 10.4295 19.2669 13.9865 21.7976 14.7636C23.5016 15.5578 34.2485 11.0856 29.8452 8.90995C28.3774 11.2238 25.4418 11.5864 23.0292 10.6021ZM32.1902 16.991C30.2669 17.958 27.9725 18.5969 25.8973 19.2703C22.2194 23.19 36.7455 20.8934 32.1902 16.991ZM31.701 15.5406C33.9786 10.1014 25.6442 15.247 23.6703 15.9205C23.2317 19.8919 30.3344 17.2673 31.701 15.5406ZM10.2746 12.8814C10.3421 14.5218 10.0215 15.5406 11.1856 16.2658C14.931 17.4572 19.6212 21.1179 23.4847 19.3394C23.2148 16.8184 19.8912 14.1247 17.6979 13.1404C16.6182 12.9332 14.5261 12.8469 14.0537 11.7936C15.859 11.2065 20.9034 12.2425 20.4479 8.77181C20.4479 8.28833 19.52 6.85514 20.0261 6.71701C31.6841 15.696 28.8835 1.79584 19.6212 1.95124C16.8544 2.711 13.3283 5.05935 10.612 6.26806C9.88656 8.04659 10.4433 10.5676 10.2746 12.8814ZM6.46172 18.1307C7.00159 18.3033 8.78994 18.0961 9.00926 18.1134L9.09362 18.0789C9.21172 15.506 9.09362 6.28533 9.12736 4.23052C8.68871 4.09238 5.58442 3.69523 5.95558 4.80034C6.07368 7.33863 6.34362 17.5608 6.46172 18.1134V18.1307Z" fill="black"/>
<path d="M28.1077 23C37.8592 22.4475 33.7258 15.2815 32.8822 9.32433C36.1384 8.06382 45.6368 10.015 43.7641 3.6952C41.2166 0.03454 31.3132 0.690696 26.1506 0.621627C16.0785 -1.9512 15.7749 4.29955 10.7472 3.02178C9.5494 1.6404 0.371479 1.53679 0.219639 3.55706C0.708904 7.09685 -0.978214 17.6126 0.92823 21.4287C3.6951 22.7755 8.41903 21.4287 10.7135 19.2875C11.3884 18.6314 11.7258 18.286 12.738 18.7868C17.6476 21.3251 22.8776 21.8258 28.1077 23ZM34.1307 8.04655C28.715 8.5473 35.3623 16.0413 33.6414 19.3221C29.1706 27.2132 14.442 15.6614 10.1399 18.6832C8.03099 20.5826 3.89755 21.8258 1.33314 20.6689C0.506451 16.7493 1.24878 6.94145 1.0632 3.6434C2.90216 2.6937 7.4405 2.91817 9.63375 3.24625C13.666 6.90691 18.12 -1.19144 22.8607 1.17418C24.2611 1.48499 26.0663 1.53679 27.6015 1.48499C31.7012 1.65766 40.0187 0.811567 43.0387 4.14415C44.1184 8.51277 37.0325 7.87388 34.1307 8.04655ZM27.5678 21.8431C30.3684 21.9122 35.7841 19.3911 32.3086 16.542C29.9466 17.5608 19.7565 19.961 27.5678 21.8431ZM32.0893 17.4745C34.2994 20.3581 26.1844 22.1539 25.577 20.0128C27.416 18.8213 30.166 18.7177 32.0893 17.4745ZM21.2074 20.2545C22.1184 20.2545 23.0126 20.0646 23.8561 19.6502C24.2948 17.2845 21.6123 15.8686 20.2795 14.3318C19.0985 12.467 16.4497 12.8296 14.7457 11.9835C17.3101 12.536 22.6246 11.2583 20.3976 7.3904C32.3255 16.5593 28.8331 0.604359 19.5203 1.55406C16.5678 2.48649 12.9068 4.5931 10.2242 6.12989C9.86995 9.13439 8.84081 14.1937 10.9666 16.6629C14.2565 17.7508 17.715 20.2545 21.2242 20.2718L21.2074 20.2545ZM23.0801 19.0631C19.5034 20.4963 14.9313 17.0083 11.3209 15.8686C10.0893 13.7275 10.6629 8.96172 10.9834 6.50977C15.9942 4.55856 20.4988 -0.552548 25.577 4.92118C27.146 6.47523 28.5126 8.78904 26.3193 9.37613C24.1936 9.79055 21.8822 6.71697 19.9083 6.30256C18.5249 6.99325 20.9543 9.15166 19.7227 10.1186C18.3224 12.0353 14.7457 10.1704 13.5816 11.7935C14.1046 13.244 16.1966 13.2958 17.6138 13.5548C19.6215 14.4354 22.4221 16.9737 23.0632 19.0458L23.0801 19.0631ZM7.18743 18.6314C7.86228 18.5969 8.84081 18.6314 9.49878 18.4069C9.63375 15.765 9.53252 7.66667 9.5494 4.02328C8.73958 3.50526 5.09541 3.14265 5.53406 4.86937C5.66903 7.3904 5.87148 18.2688 6.09081 18.4587C6.4451 18.5796 6.69817 18.6141 7.17056 18.6141L7.18743 18.6314ZM8.68896 17.699C8.18283 17.7335 5.61842 17.7853 5.06166 17.768C4.90982 15.7132 5.4497 7.26953 5.29786 4.61037C5.97271 4.6449 8.01412 4.47223 8.70584 4.5413C8.70584 7.99475 8.77332 15.0225 8.68896 17.699ZM25.8301 18.4414C36.3408 16.6975 34.5693 8.68544 23.35 15.5923C22.6077 17.4572 24.4635 18.5451 25.8301 18.4414ZM31.0264 13.3303C34.4344 15.4542 24.3792 19.8056 24.008 16.2312C26.235 15.2815 28.7488 14.0728 31.0264 13.3303ZM22.4052 15.2988C24.9022 15.1607 34.8393 11.7072 29.9129 8.46097C27.4666 10.9302 25.6951 11.1029 23.0463 10.1704C19.8746 10.015 18.8285 15.247 22.4052 15.2988ZM29.8623 9.41067C32.4773 11.949 22.6414 14.8499 21.9834 14.3664C19.8914 13.6584 21.2917 11.1719 22.8101 11.0165C24.531 11.5863 28.3945 12.277 29.8623 9.3934V9.41067ZM32.4098 7.61487C55.439 7.21772 35.2948 -0.690686 25.1552 2.50376C26.4374 5.12838 29.1368 8.25376 32.4098 7.61487ZM33.9788 6.73424C30.419 7.33859 28.3945 5.92268 26.3025 3.02178C32.9666 1.55406 53.465 5.76727 33.9788 6.73424Z" fill="black"/>
</g>
<defs>
<clipPath id="clip0_11_331">
<rect width="44" height="23" fill="white" transform="matrix(-1 0 0 1 44 0)"/>
</clipPath>
</defs>
</svg>
